<svg width="120" height="120" viewBox="0 0 120 120" xmlns="http://www.w3.org/2000/svg">
  <defs>
    <linearGradient id="bgGradient" x1="0" y1="0" x2="120" y2="0" gradientUnits="userSpaceOnUse">
      <stop stop-color="#15b7e6"/>
      <stop offset="1" stop-color="#1ec6e6"/>
    </linearGradient>
  </defs>
  <!-- Rounded square background -->
  <rect x="10" y="10" width="100" height="100" rx="24" fill="url(#bgGradient)" />
  <!-- Home icon - increased height -->
  <g fill="none" stroke="#fff" stroke-width="6" stroke-linecap="round" stroke-linejoin="round">
    <path d="M40 72V54a2 2 0 0 1 .7-1.5l19-16a8 2 0 0 1 2.6 0l19 16A8 2 0 0 1 82 54v18a6 6 0 0 1-6 6H46a6 6 0 0 1-6-6z"/>
    <rect x="54" y="62" width="12" height="16" rx="3"/>
  </g>
</svg>